<?xml version="1.0" encoding="UTF-8" standalone="no"?>
<svg width="1024" height="1024" viewBox="0 0 1024 1024" xmlns="http://www.w3.org/2000/svg">
  <!-- 面包师基本特征 -->
  <g id="baker">
    <!-- 头部和圆润脸庞 -->
    <path d="M462 280 L562 280 L542 380 L482 380 L462 280" fill="#ffdbac"/>
    <path d="M472 270 L552 270 L542 390 L482 390" fill="#f8d5a3"/>
    
    <!-- 面部特征 -->
    <circle cx="502" cy="310" r="3" fill="#000000"/>
    <circle cx="522" cy="310" r="3" fill="#000000"/>
    <path d="M502 330 Q512 340 522 330" fill="none" stroke="#000000" stroke-width="2"/>
    <path d="M492 300 Q502 290 512 300" fill="#ffb6c1"/>
    
    <!-- 带着面粉的围裙 -->
    <path d="M462 380 L562 380 L582 580 L442 580" fill="#ffffff"/>
    <path d="M472 400 L552 400 L567 560 L457 560" fill="#f5f5f5"/>
    <path d="M482 420 L542 420" fill="none" stroke="#dcdcdc" stroke-width="4"/>
    
    <!-- 面粉痕迹 -->
    <circle cx="502" cy="450" r="5" fill="#ffffff" opacity="0.8"/>
    <circle cx="522" cy="470" r="4" fill="#ffffff" opacity="0.8"/>
    <circle cx="492" cy="490" r="6" fill="#ffffff" opacity="0.8"/>
    
    <!-- 工具 - 新鲜面包 -->
    <path d="M412 460 L452 460 L462 500 L422 500" fill="#deb887"/>
    <path d="M422 470 L442 470 L447 490 L427 490" fill="#d2691e"/>
    
    <!-- 工具 - 擀面杖 -->
    <path d="M572 460 L612 460 L612 470 L572 470" fill="#deb887"/>
    <path d="M582 470 L602 470" fill="none" stroke="#a0522d" stroke-width="2"/>
    
    <!-- 温暖笑容 -->
    <path d="M502 330 Q512 345 522 330" fill="none" stroke="#000000" stroke-width="2"/>
    
    <!-- 装饰细节 -->
    <path d="M472 440 L552 440" fill="none" stroke="#dcdcdc" stroke-width="2"/>
    <path d="M482 460 L542 460" fill="none" stroke="#dcdcdc" stroke-width="2"/>
  </g>
</svg>