<?xml version="1.0" encoding="UTF-8" standalone="no"?>
<svg width="1024" height="1024" viewBox="0 0 1024 1024" xmlns="http://www.w3.org/2000/svg">
  <!-- 蜂农基本特征 -->
  <g id="beekeeper">
    <!-- 头部和脸部 -->
    <path d="M462 280 L562 280 L542 380 L482 380 L462 280" fill="#ffe4c4"/>
    <path d="M482 320 L542 320 L532 350 L492 350 L482 320" fill="#f5d4b4"/>
    
    <!-- 棕色长发马尾 -->
    <path d="M452 260 L572 260 L562 280 L462 280 L452 260" fill="#8b4513"/>
    <path d="M502 180 L522 180 L522 260 L502 260" fill="#8b4513"/>
    <path d="M522 200 L542 220 L522 240" fill="#8b4513" stroke="#8b4513" stroke-width="2"/>
    
    <!-- 养蜂防护服 -->
    <path d="M462 380 L562 380 L582 580 L442 580" fill="#ffffff"/>
    <path d="M472 400 L552 400 L567 560 L457 560" fill="#f5f5f5"/>
    
    <!-- 防护帽纱网 -->
    <path d="M452 240 L572 240 L572 280 L452 280" fill="#f8f8ff" opacity="0.6"/>
    <path d="M462 250 L562 250" fill="none" stroke="#dcdcdc" stroke-width="1"/>
    <path d="M462 260 L562 260" fill="none" stroke="#dcdcdc" stroke-width="1"/>
    
    <!-- 工具 - 蜂蜜罐 -->
    <path d="M412 460 L452 460 L462 500 L422 500" fill="#ffd700"/>
    <path d="M422 470 L442 470 L447 490 L427 490" fill="#daa520"/>
    
    <!-- 工具 - 蜂箱工具 -->
    <path d="M572 460 L612 460 L622 500 L562 500" fill="#8b4513"/>
    <path d="M582 470 L602 470 L607 490 L577 490" fill="#a0522d"/>
    
    <!-- 温和微笑 -->
    <circle cx="502" cy="310" r="3" fill="#000000"/>
    <circle cx="522" cy="310" r="3" fill="#000000"/>
    <path d="M502 330 Q512 340 522 330" fill="none" stroke="#000000" stroke-width="2"/>
    
    <!-- 装饰细节 -->
    <path d="M472 440 L552 440" fill="none" stroke="#f5f5f5" stroke-width="2"/>
    <path d="M482 460 L542 460" fill="none" stroke="#f5f5f5" stroke-width="2"/>
    
    <!-- 蜜蜂装饰 -->
    <circle cx="492" cy="420" r="2" fill="#ffd700"/>
    <circle cx="522" cy="440" r="2" fill="#ffd700"/>
    <circle cx="502" cy="460" r="2" fill="#ffd700"/>
  </g>
</svg>