<?xml version="1.0" encoding="UTF-8" standalone="no"?>
<svg width="1024" height="1024" viewBox="0 0 1024 1024" xmlns="http://www.w3.org/2000/svg">
  <!-- 铁匠学徒基本特征 -->
  <g id="blacksmith_apprentice">
    <!-- 头部和脸部 -->
    <path d="M462 280 L562 280 L542 380 L482 380 L462 280" fill="#f4d03f"/>
    <path d="M482 320 L542 320 L532 350 L492 350 L482 320" fill="#e5c03a"/>
    
    <!-- 短黑发 -->
    <path d="M452 260 L572 260 L562 280 L462 280 L452 260" fill="#1a1a1a"/>
    <path d="M462 240 L572 240 L572 260 L462 260 L462 240" fill="#1a1a1a"/>
    
    <!-- 结实体格 -->
    <path d="M422 380 L462 380 L452 480 L412 480" fill="#f4d03f"/>
    <path d="M562 380 L602 380 L612 480 L572 480" fill="#f4d03f"/>
    
    <!-- 工作围裙 -->
    <path d="M462 380 L562 380 L582 580 L442 580" fill="#8b4513"/>
    <path d="M472 400 L552 400 L567 560 L457 560" fill="#a0522d"/>
    
    <!-- 工具 - 小锤 -->
    <path d="M412 460 L442 460 L452 480 L422 480 Z" fill="#4a4a4a"/>
    <path d="M422 480 L432 480 L432 520 L422 520 Z" fill="#8b4513"/>
    
    <!-- 未完成的工艺品 -->
    <path d="M572 460 L612 460 L622 500 L562 500" fill="#c0c0c0"/>
    <path d="M582 470 L602 470 L607 490 L577 490" fill="#a8a8a8"/>
    
    <!-- 认真表情 -->
    <circle cx="502" cy="310" r="3" fill="#000000"/>
    <circle cx="522" cy="310" r="3" fill="#000000"/>
    <path d="M502 335 L522 335" fill="none" stroke="#000000" stroke-width="2"/>
    
    <!-- 装饰细节 -->
    <path d="M462 420 L562 420" fill="none" stroke="#654321" stroke-width="4"/>
    <path d="M472 440 L552 440" fill="none" stroke="#654321" stroke-width="2"/>
  </g>
</svg>