<?xml version="1.0" encoding="UTF-8"?>
<svg width="1024" height="1024" version="1.1" viewBox="0 0 1024 1024" xmlns="http://www.w3.org/2000/svg">
 <g>
  <!-- 基础轮廓 -->
  <path d="M462 320 L562 320 L542 420 L482 420 L462 320" fill="#ffccaa"/>
  <path d="M482 420 L542 420 L532 480 L492 480 L482 420" fill="#ffccaa"/>
  
  <!-- 金色短发 -->
  <path d="M452 280 C442 260 442 240 462 230 C482 220 502 220 522 230 C542 240 552 260 552 280 C552 300 542 320 522 330 C502 340 482 340 462 330 C442 320 442 300 452 280" fill="#ffd700"/>
  
  <!-- 好奇的眼神 -->
  <circle cx="492" cy="360" r="8" fill="#000000"/>
  <circle cx="522" cy="360" r="8" fill="#000000"/>
  <circle cx="494" cy="358" r="3" fill="#ffffff"/>
  <circle cx="524" cy="358" r="3" fill="#ffffff"/>
  <path d="M482 350 L502 350" fill="none" stroke="#000000" stroke-width="2"/>
  <path d="M512 350 L532 350" fill="none" stroke="#000000" stroke-width="2"/>
  
  <!-- 好奇表情 -->
  <path d="M492 380 Q507 385 522 380" fill="none" stroke="#000000" stroke-width="2"/>
  
  <!-- 学徒工装 -->
  <path d="M462 420 L482 420 L492 480 L472 580 L442 580 L462 420" fill="#8b4513"/>
  <path d="M542 420 L522 420 L512 480 L532 580 L562 580 L542 420" fill="#8b4513"/>
  
  <!-- 工装细节 -->
  <path d="M472 450 L532 450" fill="none" stroke="#654321" stroke-width="4"/>
  <path d="M472 470 L532 470" fill="none" stroke="#654321" stroke-width="4"/>
  <path d="M482 420 L492 450 L502 420" fill="#654321"/>
  
  <!-- 手臂 -->
  <path d="M462 440 L442 460" fill="none" stroke="#ffccaa" stroke-width="10"/>
  <path d="M542 440 L562 460" fill="none" stroke="#ffccaa" stroke-width="10"/>
  
  <!-- 小刻刀和木块 -->
  <path d="M432 450 L452 450 L452 460 L432 460 Z" fill="#c0c0c0"/>
  <path d="M552 450 L572 450 L572 470 L552 470 Z" fill="#deb887"/>
  
  <!-- 腿 -->
  <path d="M482 580 L472 640" fill="none" stroke="#ffccaa" stroke-width="10"/>
  <path d="M522 580 L532 640" fill="none" stroke="#ffccaa" stroke-width="10"/>
 </g>
</svg>