<?xml version="1.0" encoding="UTF-8"?>
<svg width="1024" height="1024" version="1.1" viewBox="0 0 1024 1024" xmlns="http://www.w3.org/2000/svg">
 <g>
  <!-- 基础轮廓 -->
  <path d="M462 300 Q512 280 562 300 L562 600 Q512 620 462 600 Z" fill="#8B4513" stroke="#000000" stroke-width="2"/>
  
  <!-- 黝黑皮肤 -->
  <path d="M462 280 Q512 260 562 280 Q572 240 512 220 Q452 240 462 280" fill="#654321" stroke="#000000" stroke-width="2"/>
  
  <!-- 草帽 -->
  <path d="M442 240 Q512 220 582 240 Q512 260 442 240" fill="#DEB887" stroke="#000000" stroke-width="2"/>
  
  <!-- 眼睛 -->
  <circle cx="492" cy="350" r="5" fill="#000000"/>
  <circle cx="532" cy="350" r="5" fill="#000000"/>
  
  <!-- 朴素表情 -->
  <path d="M492 380 Q512 390 532 380" fill="none" stroke="#000000" stroke-width="2"/>
  
  <!-- 工装 -->
  <path d="M442 400 L442 700 Q512 720 582 700 L582 400 Q512 420 442 400" fill="#4A4A4A" stroke="#000000" stroke-width="2"/>
  
  <!-- 粗壮手臂 -->
  <path d="M442 400 Q392 450 372 500" fill="#8B4513" stroke="#000000" stroke-width="10"/>
  <path d="M582 400 Q632 450 652 500" fill="#8B4513" stroke="#000000" stroke-width="10"/>
  
  <!-- 锄头 -->
  <path d="M372 500 L352 450" fill="#8B4513" stroke="#000000" stroke-width="4"/>
  <path d="M352 450 L332 470" fill="#4A4A4A" stroke="#000000" stroke-width="6"/>
 </g>
</svg>