<?xml version="1.0" encoding="UTF-8" standalone="no"?>
<svg width="1024" height="1024" viewBox="0 0 1024 1024" xmlns="http://www.w3.org/2000/svg">
  <!-- 渔夫基本特征 -->
  <g id="fisherman">
    <!-- 头部和布满皱纹的脸 -->
    <path d="M462 280 L562 280 L542 380 L482 380 L462 280" fill="#8b6914"/>
    <path d="M482 320 L542 320 L532 350 L492 350 L482 320" fill="#7c5810"/>
    
    <!-- 皱纹细节 -->
    <path d="M492 310 L512 310" fill="none" stroke="#654321" stroke-width="1"/>
    <path d="M512 315 L532 315" fill="none" stroke="#654321" stroke-width="1"/>
    <path d="M492 325 L522 325" fill="none" stroke="#654321" stroke-width="1"/>
    
    <!-- 旧渔夫帽 -->
    <path d="M452 240 L572 240 L572 260 L452 260" fill="#4a6741"/>
    <path d="M442 260 L582 260 L562 280 L462 280" fill="#3d563a"/>
    
    <!-- 防水服 -->
    <path d="M462 380 L562 380 L582 580 L442 580" fill="#4682b4"/>
    <path d="M472 400 L552 400 L567 560 L457 560" fill="#4169e1"/>
    
    <!-- 工具 - 鱼竿 -->
    <path d="M412 460 L452 460" fill="none" stroke="#8b4513" stroke-width="4"/>
    <path d="M452 460 L472 440" fill="none" stroke="#8b4513" stroke-width="2"/>
    <path d="M472 440 L492 460" fill="none" stroke="#696969" stroke-width="1"/>
    
    <!-- 工具 - 鱼篓 -->
    <path d="M572 460 L612 460 L622 500 L562 500" fill="#deb887"/>
    <path d="M582 470 L602 470 L607 490 L577 490" fill="#d2691e"/>
    
    <!-- 沉稳表情 -->
    <circle cx="502" cy="310" r="3" fill="#000000"/>
    <circle cx="522" cy="310" r="3" fill="#000000"/>
    <path d="M502 335 L522 335" fill="none" stroke="#000000" stroke-width="2"/>
    
    <!-- 装饰细节 -->
    <path d="M472 440 L552 440" fill="none" stroke="#4169e1" stroke-width="2"/>
    <path d="M482 460 L542 460" fill="none" stroke="#4169e1" stroke-width="2"/>
    
    <!-- 水滴效果 -->
    <circle cx="492" cy="450" r="2" fill="#87ceeb" opacity="0.6"/>
    <circle cx="522" cy="470" r="2" fill="#87ceeb" opacity="0.6"/>
    <circle cx="502" cy="490" r="2" fill="#87ceeb" opacity="0.6"/>
  </g>
</svg>