<?xml version="1.0" encoding="UTF-8"?>
<svg width="1024" height="1024" version="1.1" viewBox="0 0 1024 1024" xmlns="http://www.w3.org/2000/svg">
 <g>
  <!-- 基础轮廓 -->
  <path d="M462 300 Q512 280 562 300 L562 600 Q512 620 462 600 Z" fill="#FFE4C4" stroke="#000000" stroke-width="2"/>
  
  <!-- 乌黑长发带银丝 -->
  <path d="M462 280 Q512 260 562 280 Q582 180 512 160 Q442 180 462 280" fill="#000000" stroke="#000000" stroke-width="2"/>
  <path d="M472 220 L482 240" fill="#SILVER" stroke="#SILVER" stroke-width="1"/>
  <path d="M542 220 L552 240" fill="#SILVER" stroke="#SILVER" stroke-width="1"/>
  
  <!-- 明亮绿眼睛 -->
  <circle cx="492" cy="350" r="5" fill="#228B22"/>
  <circle cx="532" cy="350" r="5" fill="#228B22"/>
  
  <!-- 神秘微笑 -->
  <path d="M492 380 Q512 390 532 380" fill="none" stroke="#000000" stroke-width="2"/>
  
  <!-- 绿色长袍 -->
  <path d="M442 400 L442 700 Q512 720 582 700 L582 400 Q512 420 442 400" fill="#228B22" stroke="#000000" stroke-width="2"/>
  <path d="M462 450 L562 450" fill="none" stroke="#006400" stroke-width="2"/>
  <path d="M462 500 L562 500" fill="none" stroke="#006400" stroke-width="2"/>
  
  <!-- 草药和药瓶 -->
  <path d="M442 550 Q452 540 462 550 Q472 560 482 550" fill="#90EE90" stroke="#000000" stroke-width="1"/>
  <path d="M562 550 L572 600 L552 600 Z" fill="#4B0082" stroke="#000000" stroke-width="2"/>
 </g>
</svg>