<?xml version="1.0" encoding="UTF-8"?>
<svg width="1024" height="1024" version="1.1" viewBox="0 0 1024 1024" xmlns="http://www.w3.org/2000/svg">
 <g>
  <!-- 基础轮廓 -->
  <path d="M462 320 L562 320 L542 420 L482 420 L462 320" fill="#ffccaa"/>
  <path d="M482 420 L542 420 L532 480 L492 480 L482 420" fill="#ffccaa"/>
  
  <!-- 淡金色长发辫子 -->
  <path d="M452 280 C442 260 442 240 462 230 C482 220 502 220 522 230 C542 240 552 260 552 280 C552 300 542 320 522 330 C502 340 482 340 462 330 C442 320 442 300 452 280" fill="#ffefd5"/>
  <path d="M522 280 L562 320 L572 360" fill="none" stroke="#ffefd5" stroke-width="10"/>
  <path d="M522 290 L562 330 L572 370" fill="none" stroke="#ffefd5" stroke-width="10"/>
  
  <!-- 温柔的眼神 -->
  <circle cx="492" cy="360" r="6" fill="#000000"/>
  <circle cx="522" cy="360" r="6" fill="#000000"/>
  <circle cx="494" cy="358" r="2" fill="#ffffff"/>
  <circle cx="524" cy="358" r="2" fill="#ffffff"/>
  
  <!-- 温柔表情 -->
  <path d="M492 380 Q507 390 522 380" fill="none" stroke="#000000" stroke-width="2"/>
  
  <!-- 植物图案衣服 -->
  <path d="M462 420 L482 420 L492 480 L472 580 L442 580 L462 420" fill="#98fb98"/>
  <path d="M542 420 L522 420 L512 480 L532 580 L562 580 L542 420" fill="#98fb98"/>
  
  <!-- 植物图案 -->
  <path d="M472 440 Q482 430 492 440 Q502 450 512 440" fill="none" stroke="#228b22" stroke-width="2"/>
  <path d="M482 460 Q492 450 502 460 Q512 470 522 460" fill="none" stroke="#228b22" stroke-width="2"/>
  
  <!-- 手臂 -->
  <path d="M462 440 L442 460" fill="none" stroke="#ffccaa" stroke-width="10"/>
  <path d="M542 440 L562 460" fill="none" stroke="#ffccaa" stroke-width="10"/>
  
  <!-- 水壶和药草篮 -->
  <path d="M432 450 C422 450 422 460 432 460 L442 460 L442 470 L432 470 C422 470 422 460 432 460" fill="#4169e1"/>
  <path d="M552 450 L572 450 L572 470 L552 470 Z" fill="#8b4513"/>
  <path d="M552 450 Q562 440 572 450" fill="none" stroke="#228b22" stroke-width="2"/>
  
  <!-- 腿 -->
  <path d="M482 580 L472 640" fill="none" stroke="#ffccaa" stroke-width="10"/>
  <path d="M522 580 L532 640" fill="none" stroke="#ffccaa" stroke-width="10"/>
 </g>
</svg>