<?xml version="1.0" encoding="UTF-8" standalone="no"?>
<svg width="1024" height="1024" viewBox="0 0 1024 1024" xmlns="http://www.w3.org/2000/svg">
  <!-- 马夫/马匹训练师基本特征 -->
  <g id="horse_trainer">
    <!-- 头部和脸部 -->
    <path d="M462 280 L562 280 L542 380 L482 380 L462 280" fill="#e8b89c"/>
    <path d="M482 320 L542 320 L532 350 L492 350 L482 320" fill="#d4a28c"/>
    
    <!-- 短棕发 -->
    <path d="M452 260 L572 260 L562 280 L462 280 L452 260" fill="#8b4513"/>
    <path d="M462 240 L572 240 L572 260 L462 260 L462 240" fill="#a0522d"/>
    
    <!-- 结实体格 -->
    <path d="M422 380 L462 380 L452 480 L412 480" fill="#e8b89c"/>
    <path d="M562 380 L602 380 L612 480 L572 480" fill="#e8b89c"/>
    
    <!-- 皮革装备 -->
    <path d="M462 380 L562 380 L582 580 L442 580" fill="#8b4513"/>
    <path d="M472 400 L552 400 L567 560 L457 560" fill="#a0522d"/>
    
    <!-- 工具 - 缰绳 -->
    <path d="M412 460 L452 460" fill="none" stroke="#deb887" stroke-width="3"/>
    <path d="M422 470 L462 470" fill="none" stroke="#deb887" stroke-width="3"/>
    
    <!-- 马匹轮廓 -->
    <path d="M572 440 L642 440 L652 520 L562 520" fill="#8b4513"/>
    <path d="M592 420 L622 420 L632 440 L582 440" fill="#a0522d"/>
    <circle cx="612" cy="430" r="3" fill="#000000"/>
    
    <!-- 自信表情 -->
    <circle cx="502" cy="310" r="3" fill="#000000"/>
    <circle cx="522" cy="310" r="3" fill="#000000"/>
    <path d="M502 330 Q512 340 522 330" fill="none" stroke="#000000" stroke-width="2"/>
    
    <!-- 装饰细节 -->
    <path d="M472 440 L552 440" fill="none" stroke="#8b4513" stroke-width="2"/>
    <path d="M482 460 L542 460" fill="none" stroke="#8b4513" stroke-width="2"/>
    
    <!-- 皮革装备细节 -->
    <path d="M492 420 L532 420" fill="none" stroke="#deb887" stroke-width="2"/>
    <path d="M502 440 L522 440" fill="none" stroke="#deb887" stroke-width="2"/>
  </g>
</svg>