<?xml version="1.0" encoding="UTF-8" standalone="no"?>
<svg width="1024" height="1024" viewBox="0 0 1024 1024" xmlns="http://www.w3.org/2000/svg">
  <!-- 旅店老板基本特征 -->
  <g id="innkeeper">
    <!-- 头部和脸部 -->
    <path d="M462 280 L562 280 L542 380 L482 380 L462 280" fill="#ffe4c4"/>
    <path d="M482 320 L542 320 L532 350 L492 350 L482 320" fill="#f5d4b4"/>
    
    <!-- 精心修剪胡须 -->
    <path d="M482 340 L542 340 L532 370 L492 370" fill="#8b4513"/>
    <path d="M492 350 L532 350 L527 360 L497 360" fill="#a0522d"/>
    
    <!-- 健壮体格 -->
    <path d="M422 380 L462 380 L452 480 L412 480" fill="#ffe4c4"/>
    <path d="M562 380 L602 380 L612 480 L572 480" fill="#ffe4c4"/>
    
    <!-- 整洁衬衫和背心 -->
    <path d="M462 380 L562 380 L582 580 L442 580" fill="#f8f8ff"/>
    <path d="M472 400 L552 400 L567 560 L457 560" fill="#8b0000"/>
    
    <!-- 工具 - 钥匙 -->
    <path d="M412 460 L452 460" fill="none" stroke="#ffd700" stroke-width="3"/>
    <path d="M442 460 L452 470 L442 480" fill="none" stroke="#ffd700" stroke-width="3"/>
    
    <!-- 工具 - 账本 -->
    <path d="M572 460 L612 460 L622 500 L562 500" fill="#8b4513"/>
    <path d="M582 470 L602 470 L607 490 L577 490" fill="#a0522d"/>
    
    <!-- 热情表情 -->
    <circle cx="502" cy="310" r="3" fill="#000000"/>
    <circle cx="522" cy="310" r="3" fill="#000000"/>
    <path d="M502 330 Q512 340 522 330" fill="none" stroke="#000000" stroke-width="2"/>
    
    <!-- 装饰细节 -->
    <path d="M472 420 L552 420" fill="none" stroke="#ffd700" stroke-width="2"/>
    <path d="M482 440 L542 440" fill="none" stroke="#ffd700" stroke-width="2"/>
    
    <!-- 背心纽扣 -->
    <circle cx="492" cy="430" r="2" fill="#ffd700"/>
    <circle cx="512" cy="430" r="2" fill="#ffd700"/>
    <circle cx="532" cy="430" r="2" fill="#ffd700"/>
  </g>
</svg>