<?xml version="1.0" encoding="UTF-8" standalone="no"?>
<svg width="1024" height="1024" viewBox="0 0 1024 1024" xmlns="http://www.w3.org/2000/svg">
  <!-- 磨坊主基本特征 -->
  <g id="miller">
    <!-- 头部和脸部 -->
    <path d="M462 280 L562 280 L542 380 L482 380 L462 280" fill="#e8b89c"/>
    <path d="M482 320 L542 320 L532 350 L492 350 L482 320" fill="#d4a28c"/>
    
    <!-- 灰白相间头发 -->
    <path d="M452 260 L572 260 L562 280 L462 280 L452 260" fill="#a9a9a9"/>
    <path d="M462 240 L572 240 L572 260 L462 260 L462 240" fill="#dcdcdc"/>
    <path d="M472 230 L562 230 L562 240 L472 240" fill="#a9a9a9"/>
    
    <!-- 强壮体格 -->
    <path d="M422 380 L462 380 L452 480 L412 480" fill="#e8b89c"/>
    <path d="M562 380 L602 380 L612 480 L572 480" fill="#e8b89c"/>
    
    <!-- 带面粉的工作服 -->
    <path d="M462 380 L562 380 L582 580 L442 580" fill="#8b7355"/>
    <path d="M472 400 L552 400 L567 560 L457 560" fill="#9b8365"/>
    
    <!-- 面粉痕迹 -->
    <circle cx="502" cy="450" r="5" fill="#ffffff" opacity="0.8"/>
    <circle cx="522" cy="470" r="4" fill="#ffffff" opacity="0.8"/>
    <circle cx="492" cy="490" r="6" fill="#ffffff" opacity="0.8"/>
    
    <!-- 磨盘 -->
    <circle cx="432" cy="500" r="30" fill="#808080"/>
    <circle cx="432" cy="500" r="20" fill="#696969"/>
    <circle cx="432" cy="500" r="5" fill="#000000"/>
    
    <!-- 勤劳姿态 -->
    <path d="M572 460 L612 460 L622 500 L562 500" fill="#8b7355"/>
    <path d="M582 470 L602 470 L607 490 L577 490" fill="#9b8365"/>
    
    <!-- 表情 -->
    <circle cx="502" cy="310" r="3" fill="#000000"/>
    <circle cx="522" cy="310" r="3" fill="#000000"/>
    <path d="M502 335 L522 335" fill="none" stroke="#000000" stroke-width="2"/>
    
    <!-- 装饰细节 -->
    <path d="M472 440 L552 440" fill="none" stroke="#8b7355" stroke-width="2"/>
    <path d="M482 460 L542 460" fill="none" stroke="#8b7355" stroke-width="2"/>
  </g>
</svg>