<?xml version="1.0" encoding="UTF-8"?>
<svg width="1024" height="1024" version="1.1" viewBox="0 0 1024 1024" xmlns="http://www.w3.org/2000/svg">
 <g>
  <!-- 基础轮廓 -->
  <path d="M462 300 Q512 280 562 300 L562 600 Q512 620 462 600 Z" fill="#D2B48C" stroke="#000000" stroke-width="2"/>
  
  <!-- 灰白相间短发 -->
  <path d="M462 280 Q512 260 562 280 Q572 240 512 220 Q452 240 462 280" fill="#808080" stroke="#000000" stroke-width="2"/>
  <path d="M482 240 L492 260" fill="#FFFFFF" stroke="#FFFFFF" stroke-width="2"/>
  <path d="M532 240 L542 260" fill="#FFFFFF" stroke="#FFFFFF" stroke-width="2"/>
  
  <!-- 眼睛和疤痕 -->
  <circle cx="492" cy="350" r="5" fill="#000000"/>
  <circle cx="532" cy="350" r="5" fill="#000000"/>
  <path d="M512 320 L532 340" fill="none" stroke="#8B4513" stroke-width="2"/>
  
  <!-- 严肃表情 -->
  <path d="M492 380 L532 380" fill="none" stroke="#000000" stroke-width="2"/>
  
  <!-- 工作服 -->
  <path d="M442 400 L442 700 Q512 720 582 700 L582 400 Q512 420 442 400" fill="#4A4A4A" stroke="#000000" stroke-width="2"/>
  
  <!-- 安全帽 -->
  <path d="M462 240 Q512 220 562 240 Q512 260 462 240" fill="#FFD700" stroke="#000000" stroke-width="2"/>
  
  <!-- 矿灯 -->
  <circle cx="492" cy="230" r="5" fill="#FFFF00" stroke="#000000" stroke-width="1"/>
  
  <!-- 图纸 -->
  <rect x="562" y="450" width="30" height="40" fill="#FFFFFF" stroke="#000000" stroke-width="1"/>
  <path d="M562 460 L592 460" fill="none" stroke="#000000" stroke-width="1"/>
  <path d="M562 470 L592 470" fill="none" stroke="#000000" stroke-width="1"/>
 </g>
</svg>