<?xml version="1.0" encoding="UTF-8" standalone="no"?>
<svg width="1024" height="1024" viewBox="0 0 1024 1024" xmlns="http://www.w3.org/2000/svg">
  <!-- 乐师基本特征 -->
  <g id="musician">
    <!-- 头部和脸部 -->
    <path d="M462 280 L562 280 L542 380 L482 380 L462 280" fill="#ffe4c4"/>
    <path d="M482 320 L542 320 L532 350 L492 350 L482 320" fill="#f5d4b4"/>
    
    <!-- 长发马尾 -->
    <path d="M452 260 L572 260 L562 280 L462 280 L452 260" fill="#2f1f1f"/>
    <path d="M502 180 L522 180 L522 260 L502 260" fill="#2f1f1f"/>
    <path d="M522 200 L542 220 L522 240" fill="#2f1f1f" stroke="#2f1f1f" stroke-width="2"/>
    
    <!-- 修长手指 -->
    <path d="M422 380 L462 380 L452 480 L412 480" fill="#ffe4c4"/>
    <path d="M562 380 L602 380 L612 480 L572 480" fill="#ffe4c4"/>
    
    <!-- 艺术风格服装 -->
    <path d="M462 380 L562 380 L582 580 L442 580" fill="#800080"/>
    <path d="M472 400 L552 400 L567 560 L457 560" fill="#9400d3"/>
    
    <!-- 鲁特琴 -->
    <path d="M412 460 L472 460 L482 520 L422 520" fill="#8b4513"/>
    <path d="M432 470 L452 470 L457 510 L437 510" fill="#a0522d"/>
    <path d="M442 460 L442 520" fill="none" stroke="#f5deb3" stroke-width="1"/>
    <path d="M452 460 L452 520" fill="none" stroke="#f5deb3" stroke-width="1"/>
    <path d="M462 460 L462 520" fill="none" stroke="#f5deb3" stroke-width="1"/>
    
    <!-- 陶醉表情 -->
    <circle cx="502" cy="310" r="3" fill="#000000"/>
    <circle cx="522" cy="310" r="3" fill="#000000"/>
    <path d="M502 330 Q512 340 522 330" fill="none" stroke="#000000" stroke-width="2"/>
    
    <!-- 装饰细节 -->
    <path d="M472 420 L552 420" fill="none" stroke="#ffd700" stroke-width="2"/>
    <path d="M482 440 L542 440" fill="none" stroke="#ffd700" stroke-width="2"/>
    
    <!-- 音符装饰 -->
    <path d="M572 460 Q582 450 592 460 L592 480 Q582 470 572 480 Z" fill="#000000"/>
    <path d="M602 440 Q612 430 622 440 L622 460 Q612 450 602 460 Z" fill="#000000"/>
  </g>
</svg>