<?xml version="1.0" encoding="UTF-8" standalone="no"?>
<svg width="1024" height="1024" viewBox="0 0 1024 1024" xmlns="http://www.w3.org/2000/svg">
  <!-- 糕点师基本特征 -->
  <g id="pastry_chef">
    <!-- 头部和圆润脸庞 -->
    <path d="M462 280 L562 280 L542 380 L482 380 L462 280" fill="#ffe4c4"/>
    <path d="M482 320 L542 320 L532 350 L492 350 L482 320" fill="#f5d4b4"/>
    
    <!-- 金色长发发髻 -->
    <path d="M452 260 L572 260 L562 280 L462 280 L452 260" fill="#ffd700"/>
    <path d="M502 200 L532 200 L542 240 L492 240 Z" fill="#ffd700"/>
    <path d="M512 180 L532 180 L532 200 L512 200" fill="#ffd700"/>
    
    <!-- 甜点香气的精致围裙 -->
    <path d="M462 380 L562 380 L582 580 L442 580" fill="#fff0f5"/>
    <path d="M472 400 L552 400 L567 560 L457 560" fill="#ffb6c1"/>
    
    <!-- 工具 - 精美蛋糕 -->
    <path d="M412 460 L452 460 L462 500 L422 500" fill="#ffc0cb"/>
    <path d="M422 470 L442 470 L447 490 L427 490" fill="#ff69b4"/>
    <circle cx="432" cy="465" r="3" fill="#ffffff"/>
    <circle cx="442" cy="475" r="3" fill="#ffffff"/>
    
    <!-- 装饰工具 -->
    <path d="M572 460 L612 460 L622 500 L562 500" fill="#dda0dd"/>
    <path d="M582 470 L602 470 L607 490 L577 490" fill="#ba55d3"/>
    
    <!-- 甜美笑容 -->
    <circle cx="502" cy="310" r="3" fill="#000000"/>
    <circle cx="522" cy="310" r="3" fill="#000000"/>
    <path d="M502 330 Q512 340 522 330" fill="none" stroke="#000000" stroke-width="2"/>
    
    <!-- 装饰细节 -->
    <path d="M472 440 L552 440" fill="none" stroke="#ff69b4" stroke-width="2"/>
    <path d="M482 460 L542 460" fill="none" stroke="#ff69b4" stroke-width="2"/>
    
    <!-- 糖霜和装饰效果 -->
    <circle cx="492" cy="420" r="3" fill="#ffffff"/>
    <circle cx="512" cy="430" r="3" fill="#ffffff"/>
    <circle cx="532" cy="425" r="3" fill="#ffffff"/>
  </g>
</svg>