<?xml version="1.0" encoding="UTF-8" standalone="no"?>
<svg width="1024" height="1024" viewBox="0 0 1024 1024" xmlns="http://www.w3.org/2000/svg">
  <!-- 驿站管理员基本特征 -->
  <g id="postmaster">
    <!-- 头部和脸部 -->
    <path d="M462 280 L562 280 L542 380 L482 380 L462 280" fill="#e8b89c"/>
    <path d="M482 320 L542 320 L532 350 L492 350 L482 320" fill="#d4a28c"/>
    
    <!-- 整齐短发 -->
    <path d="M452 260 L572 260 L562 280 L462 280 L452 260" fill="#2f4f4f"/>
    <path d="M462 240 L572 240 L572 260 L462 260 L462 240" fill="#4a6a6a"/>
    
    <!-- 精干身材 -->
    <path d="M422 380 L462 380 L452 480 L412 480" fill="#e8b89c"/>
    <path d="M562 380 L602 380 L612 480 L572 480" fill="#e8b89c"/>
    
    <!-- 官方制服 -->
    <path d="M462 380 L562 380 L582 580 L442 580" fill="#000080"/>
    <path d="M472 400 L552 400 L567 560 L457 560" fill="#00008b"/>
    
    <!-- 工具 - 信件 -->
    <path d="M412 460 L452 460 L462 500 L422 500" fill="#f5f5f5"/>
    <path d="M422 470 L442 470 L447 490 L427 490" fill="#ffffff"/>
    
    <!-- 工具 - 邮戳 -->
    <path d="M572 460 L612 460 L622 500 L562 500" fill="#8b0000"/>
    <circle cx="592" cy="480" r="10" fill="#b22222"/>
    
    <!-- 严谨表情 -->
    <circle cx="502" cy="310" r="3" fill="#000000"/>
    <circle cx="522" cy="310" r="3" fill="#000000"/>
    <path d="M502 335 L522 335" fill="none" stroke="#000000" stroke-width="2"/>
    
    <!-- 制服装饰 -->
    <path d="M472 420 L552 420" fill="none" stroke="#ffd700" stroke-width="2"/>
    <path d="M482 440 L542 440" fill="none" stroke="#ffd700" stroke-width="2"/>
    
    <!-- 徽章和纽扣 -->
    <circle cx="492" cy="410" r="4" fill="#ffd700"/>
    <circle cx="532" cy="410" r="4" fill="#ffd700"/>
    <circle cx="512" cy="450" r="3" fill="#ffd700"/>
  </g>
</svg>