<?xml version="1.0" encoding="UTF-8" standalone="no"?>
<svg width="1024" height="1024" viewBox="0 0 1024 1024" xmlns="http://www.w3.org/2000/svg">
  <!-- 陶艺师基本特征 -->
  <g id="potter">
    <!-- 头部和脸部 -->
    <path d="M462 280 L562 280 L542 380 L482 380 L462 280" fill="#e8b89c"/>
    <path d="M482 320 L542 320 L532 350 L492 350 L482 320" fill="#d4a28c"/>
    
    <!-- 棕色短发 -->
    <path d="M452 260 L572 260 L562 280 L462 280 L452 260" fill="#8b4513"/>
    <path d="M462 240 L572 240 L572 260 L462 260 L462 240" fill="#8b4513"/>
    
    <!-- 陶土痕迹 -->
    <circle cx="492" cy="340" r="5" fill="#d2691e" opacity="0.6"/>
    <circle cx="522" cy="350" r="4" fill="#d2691e" opacity="0.6"/>
    
    <!-- 工作服装 -->
    <path d="M462 380 L562 380 L582 580 L442 580" fill="#f4a460"/>
    <path d="M472 400 L552 400 L567 560 L457 560" fill="#deb887"/>
    
    <!-- 陶轮 -->
    <path d="M412 460 L452 460 L462 500 L422 500" fill="#8b4513"/>
    <circle cx="432" cy="480" r="15" fill="#d2691e"/>
    
    <!-- 未完成的陶器 -->
    <path d="M572 460 L612 460 L602 500 L582 500" fill="#d2691e"/>
    <path d="M582 470 L602 470 L597 490 L587 490" fill="#cd853f"/>
    
    <!-- 专注表情 -->
    <circle cx="502" cy="310" r="3" fill="#000000"/>
    <circle cx="522" cy="310" r="3" fill="#000000"/>
    <path d="M502 335 L522 335" fill="none" stroke="#000000" stroke-width="2"/>
    
    <!-- 灵巧手指细节 -->
    <path d="M422 480 L442 480" fill="none" stroke="#e8b89c" stroke-width="3"/>
    <path d="M572 480 L592 480" fill="none" stroke="#e8b89c" stroke-width="3"/>
    
    <!-- 装饰细节和陶土痕迹 -->
    <path d="M472 440 L552 440" fill="none" stroke="#d2691e" stroke-width="2"/>
    <circle cx="512" cy="460" r="6" fill="#d2691e" opacity="0.4"/>
    <circle cx="492" cy="480" r="5" fill="#d2691e" opacity="0.4"/>
  </g>
</svg>