<?xml version="1.0" encoding="UTF-8" standalone="no"?>
<svg width="1024" height="1024" viewBox="0 0 1024 1024" xmlns="http://www.w3.org/2000/svg">
  <!-- 退休船长基本特征 -->
  <g id="retired_captain">
    <!-- 头部和布满皱纹的脸 -->
    <path d="M462 280 L562 280 L542 380 L482 380 L462 280" fill="#ffe4c4"/>
    <path d="M482 320 L542 320 L532 350 L492 350 L482 320" fill="#f5d4b4"/>
    
    <!-- 皱纹细节 -->
    <path d="M492 310 L512 310" fill="none" stroke="#deb887" stroke-width="1"/>
    <path d="M512 315 L532 315" fill="none" stroke="#deb887" stroke-width="1"/>
    <path d="M492 325 L522 325" fill="none" stroke="#deb887" stroke-width="1"/>
    
    <!-- 全白胡须 -->
    <path d="M482 340 L542 340 L532 390 L492 390" fill="#ffffff"/>
    <path d="M492 350 L532 350 L527 380 L497 380" fill="#f8f8ff"/>
    
    <!-- 旧船长帽 -->
    <path d="M452 240 L572 240 L572 260 L452 260" fill="#000080"/>
    <path d="M442 260 L582 260 L562 280 L462 280" fill="#00008b"/>
    <path d="M502 230 L522 240" fill="none" stroke="#ffd700" stroke-width="2"/>
    
    <!-- 海军风衣 -->
    <path d="M462 380 L562 380 L582 580 L442 580" fill="#000080"/>
    <path d="M472 400 L552 400 L567 560 L457 560" fill="#00008b"/>
    
    <!-- 工具 - 望远镜 -->
    <path d="M412 460 L452 460 L462 480 L422 480" fill="#8b4513"/>
    <circle cx="432" cy="470" r="5" fill="#f0f8ff"/>
    
    <!-- 工具 - 航海图 -->
    <path d="M572 460 L612 460 L622 500 L562 500" fill="#f5deb3"/>
    <path d="M582 470 L602 470 L607 490 L577 490" fill="#deb887"/>
    
    <!-- 夸张表情 -->
    <circle cx="502" cy="310" r="3" fill="#000000"/>
    <circle cx="522" cy="310" r="3" fill="#000000"/>
    <path d="M502 330 Q512 345 522 330" fill="none" stroke="#000000" stroke-width="2"/>
    
    <!-- 装饰细节 -->
    <path d="M472 420 L552 420" fill="none" stroke="#ffd700" stroke-width="2"/>
    <path d="M482 440 L542 440" fill="none" stroke="#ffd700" stroke-width="2"/>
    
    <!-- 军衔标志 -->
    <circle cx="492" cy="410" r="4" fill="#ffd700"/>
    <circle cx="512" cy="410" r="4" fill="#ffd700"/>
    <circle cx="532" cy="410" r="4" fill="#ffd700"/>
  </g>
</svg>