<?xml version="1.0" encoding="UTF-8" standalone="no"?>
<svg width="1024" height="1024" viewBox="0 0 1024 1024" xmlns="http://www.w3.org/2000/svg">
  <!-- 裁缝基本特征 -->
  <g id="tailor">
    <!-- 头部和脸部 -->
    <path d="M462 280 L562 280 L542 380 L482 380 L462 280" fill="#ffe4c4"/>
    <path d="M482 320 L542 320 L532 350 L492 350 L482 320" fill="#f5d4b4"/>
    
    <!-- 金色长发盘发髻 -->
    <path d="M452 260 L572 260 L562 280 L462 280 L452 260" fill="#ffd700"/>
    <path d="M502 200 L532 200 L542 240 L492 240 Z" fill="#ffd700"/>
    <path d="M512 180 L532 180 L532 200 L512 200" fill="#ffd700"/>
    
    <!-- 纤细手指和优雅体态 -->
    <path d="M422 380 L462 380 L452 480 L412 480" fill="#ffe4c4"/>
    <path d="M562 380 L602 380 L612 480 L572 480" fill="#ffe4c4"/>
    
    <!-- 精美服装 -->
    <path d="M462 380 L562 380 L582 580 L442 580" fill="#e6e6fa"/>
    <path d="M472 400 L552 400 L567 560 L457 560" fill="#d8bfd8"/>
    <path d="M462 420 L562 420" fill="none" stroke="#9370db" stroke-width="4"/>
    
    <!-- 工具 - 针线 -->
    <path d="M412 460 L432 460 L442 480 L422 480" fill="#c0c0c0"/>
    <path d="M422 480 L442 480" fill="none" stroke="#4169e1" stroke-width="2"/>
    
    <!-- 工具 - 布料 -->
    <path d="M572 460 L612 460 L622 500 L562 500" fill="#b0e0e6"/>
    <path d="M582 470 L602 470 L607 490 L577 490" fill="#87ceeb"/>
    
    <!-- 优雅微笑 -->
    <circle cx="502" cy="310" r="3" fill="#000000"/>
    <circle cx="522" cy="310" r="3" fill="#000000"/>
    <path d="M502 330 Q512 340 522 330" fill="none" stroke="#000000" stroke-width="2"/>
    
    <!-- 装饰细节 -->
    <path d="M472 440 L552 440" fill="none" stroke="#9370db" stroke-width="2"/>
    <path d="M482 460 L542 460" fill="none" stroke="#9370db" stroke-width="2"/>
  </g>
</svg>