<?xml version="1.0" encoding="UTF-8"?>
<svg width="1024" height="1024" version="1.1" viewBox="0 0 1024 1024" xmlns="http://www.w3.org/2000/svg">
 <g>
  <!-- 基础轮廓 -->
  <path d="M462 320 L562 320 L542 420 L482 420 L462 320" fill="#ffccaa"/>
  <path d="M482 420 L542 420 L532 480 L492 480 L482 420" fill="#ffccaa"/>
  
  <!-- 红褐色卷发 -->
  <path d="M452 280 C442 260 442 240 462 230 C482 220 502 220 522 230 C542 240 552 260 552 280 C552 300 542 320 522 330 C502 340 482 340 462 330 C442 320 442 300 452 280" fill="#8b4513"/>
  <path d="M462 250 Q472 240 482 250 Q492 260 502 250 Q512 240 522 250 Q532 260 542 250" fill="none" stroke="#8b4513" stroke-width="4"/>
  
  <!-- 活泼大眼睛 -->
  <circle cx="492" cy="360" r="8" fill="#000000"/>
  <circle cx="522" cy="360" r="8" fill="#000000"/>
  <circle cx="494" cy="358" r="2" fill="#ffffff"/>
  <circle cx="524" cy="358" r="2" fill="#ffffff"/>
  
  <!-- 顽皮笑容 -->
  <path d="M492 380 Q507 390 522 380" fill="none" stroke="#000000" stroke-width="2"/>
  
  <!-- 简单衬衫 -->
  <path d="M462 420 L482 420 L492 480 L472 520 L442 520 L462 420" fill="#ffffff"/>
  <path d="M542 420 L522 420 L512 480 L532 520 L562 520 L542 420" fill="#ffffff"/>
  
  <!-- 短裤 -->
  <path d="M472 520 L532 520 L542 580 L462 580" fill="#4169e1"/>
  
  <!-- 小托盘 -->
  <path d="M452 460 L472 450 L492 460 L472 470 Z" fill="#8b4513"/>
  
  <!-- 手臂 -->
  <path d="M462 440 L442 460" fill="none" stroke="#ffccaa" stroke-width="10"/>
  <path d="M542 440 L562 460" fill="none" stroke="#ffccaa" stroke-width="10"/>
  
  <!-- 腿 -->
  <path d="M482 580 L472 640" fill="none" stroke="#ffccaa" stroke-width="10"/>
  <path d="M522 580 L532 640" fill="none" stroke="#ffccaa" stroke-width="10"/>
 </g>
</svg>