<?xml version="1.0" encoding="UTF-8"?>
<svg width="1024" height="1024" version="1.1" viewBox="0 0 1024 1024" xmlns="http://www.w3.org/2000/svg">
 <g>
  <!-- 基础轮廓 -->
  <path d="M462 300 Q512 280 562 300 L562 600 Q512 620 462 600 Z" fill="#FFE4C4" stroke="#000000" stroke-width="2"/>
  
  <!-- 全白长发和胡须 -->
  <path d="M462 280 Q512 260 562 280 Q582 180 512 160 Q442 180 462 280" fill="#FFFFFF" stroke="#000000" stroke-width="2"/>
  <path d="M472 380 Q512 400 552 380 Q512 420 472 380" fill="#FFFFFF" stroke="#000000" stroke-width="2"/>
  
  <!-- 眼睛 -->
  <circle cx="492" cy="350" r="4" fill="#000000"/>
  <circle cx="532" cy="350" r="4" fill="#000000"/>
  
  <!-- 祥和表情 -->
  <path d="M492 380 Q512 390 532 380" fill="none" stroke="#000000" stroke-width="1"/>
  
  <!-- 白色长袍 -->
  <path d="M442 400 L442 700 Q512 720 582 700 L582 400 Q512 420 442 400" fill="#FFFFFF" stroke="#000000" stroke-width="2"/>
  <path d="M462 450 L562 450" fill="none" stroke="#F5F5F5" stroke-width="2"/>
  <path d="M462 500 L562 500" fill="none" stroke="#F5F5F5" stroke-width="2"/>
  
  <!-- 圣书 -->
  <rect x="442" y="550" width="40" height="30" fill="#8B4513" stroke="#000000" stroke-width="2"/>
  
  <!-- 法杖 -->
  <path d="M582 500 L602 600" fill="none" stroke="#FFD700" stroke-width="4"/>
  <circle cx="602" cy="480" r="10" fill="#FFD700" stroke="#000000" stroke-width="1"/>
 </g>
</svg>