<?xml version="1.0" encoding="UTF-8" standalone="no"?>
<svg width="1024" height="1024" viewBox="0 0 1024 1024" xmlns="http://www.w3.org/2000/svg">
  <!-- 村医基本特征 -->
  <g id="village_doctor">
    <!-- 头部和脸部 -->
    <path d="M462 280 L562 280 L542 380 L482 380 L462 280" fill="#ffe4c4"/>
    <path d="M482 320 L542 320 L532 350 L492 350 L482 320" fill="#f5d4b4"/>
    
    <!-- 灰白短发 -->
    <path d="M452 260 L572 260 L562 280 L462 280 L452 260" fill="#c0c0c0"/>
    <path d="M462 240 L572 240 L572 260 L462 260 L462 240" fill="#a9a9a9"/>
    
    <!-- 圆形眼镜 -->
    <circle cx="502" cy="310" r="10" fill="none" stroke="#c0c0c0" stroke-width="2"/>
    <circle cx="522" cy="310" r="10" fill="none" stroke="#c0c0c0" stroke-width="2"/>
    <path d="M512 310 L512 310" fill="none" stroke="#c0c0c0" stroke-width="2"/>
    
    <!-- 干净白色长袍 -->
    <path d="M462 380 L562 380 L582 580 L442 580" fill="#ffffff"/>
    <path d="M472 400 L552 400 L567 560 L457 560" fill="#f8f8ff"/>
    
    <!-- 工具 - 医药箱 -->
    <path d="M412 460 L452 460 L462 500 L422 500" fill="#8b0000"/>
    <path d="M422 470 L442 470 L447 490 L427 490" fill="#b22222"/>
    <path d="M432 465 L432 495" fill="none" stroke="#ffffff" stroke-width="2"/>
    <path d="M422 480 L442 480" fill="none" stroke="#ffffff" stroke-width="2"/>
    
    <!-- 工具 - 听诊器 -->
    <path d="M572 460 L612 460" fill="none" stroke="#c0c0c0" stroke-width="3"/>
    <circle cx="592" cy="480" r="10" fill="#c0c0c0"/>
    
    <!-- 严谨表情 -->
    <circle cx="502" cy="310" r="3" fill="#000000"/>
    <circle cx="522" cy="310" r="3" fill="#000000"/>
    <path d="M502 335 L522 335" fill="none" stroke="#000000" stroke-width="2"/>
    
    <!-- 装饰细节 -->
    <path d="M472 420 L552 420" fill="none" stroke="#f8f8ff" stroke-width="2"/>
    <path d="M482 440 L542 440" fill="none" stroke="#f8f8ff" stroke-width="2"/>
    
    <!-- 医生标志 -->
    <path d="M492 410 L532 410" fill="none" stroke="#ff0000" stroke-width="2"/>
    <path d="M512 390 L512 430" fill="none" stroke="#ff0000" stroke-width="2"/>
  </g>
</svg>