<?xml version="1.0" encoding="UTF-8"?>
<svg width="1024" height="1024" version="1.1" viewBox="0 0 1024 1024" xmlns="http://www.w3.org/2000/svg">
 <g>
  <!-- 基础轮廓 -->
  <path d="M462 300 Q512 280 562 300 L562 600 Q512 620 462 600 Z" fill="#FFE4C4" stroke="#000000" stroke-width="2"/>
  
  <!-- 灰白色发髻 -->
  <path d="M462 280 Q512 260 562 280 Q572 240 512 220 Q452 240 462 280" fill="#D3D3D3" stroke="#000000" stroke-width="2"/>
  <path d="M492 240 Q512 220 532 240" fill="none" stroke="#D3D3D3" stroke-width="4"/>
  
  <!-- 眼镜 -->
  <circle cx="492" cy="350" r="10" fill="none" stroke="#000000" stroke-width="1"/>
  <circle cx="532" cy="350" r="10" fill="none" stroke="#000000" stroke-width="1"/>
  <path d="M502 350 L522 350" fill="none" stroke="#000000" stroke-width="1"/>
  
  <!-- 眼睛 -->
  <circle cx="492" cy="350" r="3" fill="#000000"/>
  <circle cx="532" cy="350" r="3" fill="#000000"/>
  
  <!-- 严肃表情 -->
  <path d="M492 380 L532 380" fill="none" stroke="#000000" stroke-width="2"/>
  
  <!-- 深色长裙 -->
  <path d="M442 400 L442 700 Q512 720 582 700 L582 400 Q512 420 442 400" fill="#2F4F4F" stroke="#000000" stroke-width="2"/>
  
  <!-- 羽毛笔和文件 -->
  <path d="M442 450 L422 470" fill="none" stroke="#FFFFFF" stroke-width="2"/>
  <path d="M582 450 L562 500 L582 500" fill="none" stroke="#FFFFFF" stroke-width="2"/>
  <rect x="562" y="450" width="30" height="40" fill="#FFFFFF" stroke="#000000" stroke-width="1"/>
 </g>
</svg>