<?xml version="1.0" encoding="UTF-8"?>
<svg width="1024" height="1024" version="1.1" viewBox="0 0 1024 1024" xmlns="http://www.w3.org/2000/svg">
 <g>
  <!-- 基础轮廓 -->
  <path d="M462 300 Q512 280 562 300 L562 600 Q512 620 462 600 Z" fill="#FFE4C4" stroke="#000000" stroke-width="2"/>
  
  <!-- 白发 -->
  <path d="M462 280 Q512 260 562 280 Q572 200 512 180 Q452 200 462 280" fill="#FFFFFF" stroke="#000000" stroke-width="2"/>
  
  <!-- 眼睛 -->
  <circle cx="492" cy="350" r="5" fill="#000000"/>
  <circle cx="532" cy="350" r="5" fill="#000000"/>
  
  <!-- 微笑 -->
  <path d="M492 380 Q512 400 532 380" fill="none" stroke="#000000" stroke-width="2"/>
  
  <!-- 蓝色外套 -->
  <path d="M442 400 L442 700 Q512 720 582 700 L582 400 Q512 420 442 400" fill="#4169E1" stroke="#000000" stroke-width="2"/>
  
  <!-- 补丁 -->
  <rect x="462" y="450" width="20" height="20" fill="#1E90FF" stroke="#000000" stroke-width="1"/>
  <rect x="522" y="500" width="20" height="20" fill="#1E90FF" stroke="#000000" stroke-width="1"/>
  
  <!-- 木制手杖 -->
  <path d="M582 500 L632 700" fill="none" stroke="#8B4513" stroke-width="8"/>
  <path d="M622 690 Q632 700 642 690" fill="none" stroke="#8B4513" stroke-width="8"/>
 </g>
</svg>