<?xml version="1.0" encoding="UTF-8" standalone="no"?>
<svg width="1024" height="1024" viewBox="0 0 1024 1024" xmlns="http://www.w3.org/2000/svg">
  <!-- 织布工基本特征 -->
  <g id="weaver">
    <!-- 头部和脸部 -->
    <path d="M462 280 L562 280 L542 380 L482 380 L462 280" fill="#ffe4c4"/>
    <path d="M482 320 L542 320 L532 350 L492 350 L482 320" fill="#f5d4b4"/>
    
    <!-- 棕色卷发 -->
    <path d="M452 260 L572 260 L562 280 L462 280 L452 260" fill="#8b4513"/>
    <path d="M462 240 L572 240 L572 260 L462 260" fill="#a0522d"/>
    <path d="M472 230 L562 230 C572 240 562 250 472 230" fill="#8b4513"/>
    
    <!-- 灵巧手指 -->
    <path d="M422 380 L462 380 L452 480 L412 480" fill="#ffe4c4"/>
    <path d="M562 380 L602 380 L612 480 L572 480" fill="#ffe4c4"/>
    
    <!-- 自织的彩色围巾 -->
    <path d="M462 380 L562 380 L582 580 L442 580" fill="#e6e6fa"/>
    <path d="M472 400 L552 400 L567 560 L457 560" fill="#d8bfd8"/>
    <path d="M482 360 L542 360" fill="none" stroke="#ff69b4" stroke-width="4"/>
    
    <!-- 织布机 -->
    <path d="M412 460 L452 460 L462 520 L422 520" fill="#8b4513"/>
    <path d="M422 470 L442 470 L447 510 L427 510" fill="#a0522d"/>
    <path d="M432 460 L432 520" fill="none" stroke="#deb887" stroke-width="2"/>
    
    <!-- 织布中的布料 -->
    <path d="M572 460 L612 460 L622 500 L562 500" fill="#b0c4de"/>
    <path d="M582 470 L602 470 L607 490 L577 490" fill="#87ceeb"/>
    
    <!-- 安静微笑 -->
    <circle cx="502" cy="310" r="3" fill="#000000"/>
    <circle cx="522" cy="310" r="3" fill="#000000"/>
    <path d="M502 330 Q512 335 522 330" fill="none" stroke="#000000" stroke-width="2"/>
    
    <!-- 装饰细节 -->
    <path d="M472 440 L552 440" fill="none" stroke="#e6e6fa" stroke-width="2"/>
    <path d="M482 460 L542 460" fill="none" stroke="#d8bfd8" stroke-width="2"/>
    
    <!-- 织布纹理 -->
    <path d="M492 480 L532 480" fill="none" stroke="#b0c4de" stroke-width="1"/>
    <path d="M502 490 L522 490" fill="none" stroke="#87ceeb" stroke-width="1"/>
  </g>
</svg>