<?xml version="1.0" encoding="UTF-8" standalone="no"?>
<svg width="1024" height="1024" viewBox="0 0 1024 1024" xmlns="http://www.w3.org/2000/svg">
  <!-- 年轻农民基本特征 -->
  <g id="young_farmer">
    <!-- 头部和黝黑皮肤 -->
    <path d="M462 280 L562 280 L542 380 L482 380 L462 280" fill="#8b4513"/>
    <path d="M482 320 L542 320 L532 350 L492 350 L482 320" fill="#7c3a0c"/>
    
    <!-- 金棕色头发 -->
    <path d="M452 260 L572 260 L562 280 L462 280 L452 260" fill="#daa520"/>
    <path d="M462 240 L572 240 L572 260 L462 260 L462 240" fill="#b8860b"/>
    
    <!-- 健壮体格 -->
    <path d="M422 380 L462 380 L452 480 L412 480" fill="#8b4513"/>
    <path d="M562 380 L602 380 L612 480 L572 480" fill="#8b4513"/>
    
    <!-- 朴素工作服 -->
    <path d="M462 380 L562 380 L582 580 L442 580" fill="#556b2f"/>
    <path d="M472 400 L552 400 L567 560 L457 560" fill="#6b8e23"/>
    
    <!-- 工具 - 新型农具 -->
    <path d="M412 460 L452 460 L462 500 L422 500" fill="#c0c0c0"/>
    <path d="M422 470 L442 470 L447 490 L427 490" fill="#a8a8a8"/>
    <path d="M432 460 L432 520" fill="none" stroke="#8b4513" stroke-width="4"/>
    
    <!-- 充满希望的表情 -->
    <circle cx="502" cy="310" r="3" fill="#000000"/>
    <circle cx="522" cy="310" r="3" fill="#000000"/>
    <path d="M502 330 Q512 340 522 330" fill="none" stroke="#000000" stroke-width="2"/>
    
    <!-- 年轻活力的姿态 -->
    <path d="M572 460 L612 460 L622 500 L562 500" fill="#556b2f"/>
    <path d="M582 470 L602 470 L607 490 L577 490" fill="#6b8e23"/>
    
    <!-- 装饰细节 -->
    <path d="M472 440 L552 440" fill="none" stroke="#6b8e23" stroke-width="2"/>
    <path d="M482 460 L542 460" fill="none" stroke="#6b8e23" stroke-width="2"/>
    
    <!-- 泥土和植物装饰 -->
    <circle cx="492" cy="450" r="3" fill="#8b4513" opacity="0.4"/>
    <circle cx="522" cy="470" r="3" fill="#8b4513" opacity="0.4"/>
    <path d="M502 440 L512 430" fill="none" stroke="#228b22" stroke-width="1"/>
  </g>
</svg>